<?xml version="1.0" encoding="UTF-8" standalone="no"?>
<svg
   xmlns:dc="http://purl.org/dc/elements/1.1/"
   xmlns:cc="http://creativecommons.org/ns#"
   xmlns:rdf="http://www.w3.org/1999/02/22-rdf-syntax-ns#"
   xmlns:svg="http://www.w3.org/2000/svg"
   xmlns="http://www.w3.org/2000/svg"
   xmlns:sodipodi="http://sodipodi.sourceforge.net/DTD/sodipodi-0.dtd"
   xmlns:inkscape="http://www.inkscape.org/namespaces/inkscape"
   width="26"
   height="26"
   viewBox="0 0 26 26"
   version="1.1"
   id="svg9"
   sodipodi:docname="eye.svg"
   style="fill:none"
   inkscape:version="0.92.4 (5da689c313, 2019-01-14)">
  <metadata
     id="metadata15">
    <rdf:RDF>
      <cc:Work
         rdf:about="">
        <dc:format>image/svg+xml</dc:format>
        <dc:type
           rdf:resource="http://purl.org/dc/dcmitype/StillImage" />
        <dc:title></dc:title>
      </cc:Work>
    </rdf:RDF>
  </metadata>
  <defs
     id="defs13" />
  <sodipodi:namedview
     pagecolor="#ffffff"
     bordercolor="#666666"
     borderopacity="1"
     objecttolerance="10"
     gridtolerance="10"
     guidetolerance="10"
     inkscape:pageopacity="0"
     inkscape:pageshadow="2"
     inkscape:window-width="1920"
     inkscape:window-height="1057"
     id="namedview11"
     showgrid="false"
     inkscape:zoom="4.515476"
     inkscape:cx="-47.205044"
     inkscape:cy="-19.403206"
     inkscape:window-x="-8"
     inkscape:window-y="-8"
     inkscape:window-maximized="1"
     inkscape:current-layer="svg9" />
  <mask
     id="mask0_21_4"
     maskUnits="userSpaceOnUse"
     x="0"
     y="0"
     width="22"
     height="16">
    <path
       d="M 11,0.5 C 6,0.5 1.73,3.61 0,8 c 1.73,4.39 6,7.5 11,7.5 5,0 9.27,-3.11 11,-7.5 C 20.27,3.61 16,0.5 11,0.5 Z M 11,13 C 8.24,13 6,10.76 6,8 6,5.24 8.24,3 11,3 c 2.76,0 5,2.24 5,5 0,2.76 -2.24,5 -5,5 z M 11,5 C 9.34,5 8,6.34 8,8 c 0,1.66 1.34,3 3,3 1.66,0 3,-1.34 3,-3 0,-1.66 -1.34,-3 -3,-3 z"
       id="path2"
       inkscape:connector-curvature="0"
       style="clip-rule:evenodd;fill:#ffffff;fill-rule:evenodd" />
  </mask>
  <g
     mask="url(#mask0_21_4)"
     id="g7"
     transform="translate(2,5)">
    <rect
       x="-2"
       y="-5"
       width="26"
       height="26"
       id="rect5"
       style="fill:#ffffff" />
  </g>
</svg>
